<?xml version="1.0" standalone="no"?>
<!DOCTYPE svg PUBLIC "-//W3C//DTD SVG 20010904//EN"
 "http://www.w3.org/TR/2001/REC-SVG-20010904/DTD/svg10.dtd">
<svg version="1.0" xmlns="http://www.w3.org/2000/svg"
 width="325.000000pt" height="325.000000pt" viewBox="0 0 325.000000 325.000000"
 preserveAspectRatio="xMidYMid meet">

<g transform="translate(0.000000,325.000000) scale(0.100000,-0.100000)"
fill="#000000" stroke="none">
<path d="M1070 3158 c0 -7 17 -27 37 -45 l38 -32 -162 -1 c-156 0 -163 -1
-163 -20 0 -19 7 -20 163 -20 l162 -1 -38 -32 c-38 -33 -48 -57 -23 -57 21 0
136 93 136 110 0 17 -115 110 -136 110 -8 0 -14 -6 -14 -12z"/>
<path d="M1698 3118 c-7 -13 -15 -61 -18 -107 l-5 -84 -46 -32 c-26 -18 -96
-51 -155 -75 -258 -101 -405 -226 -606 -515 -189 -272 -286 -625 -258 -939 17
-191 67 -315 160 -399 28 -25 50 -48 50 -51 0 -12 -286 -6 -303 7 -16 11 -17
88 -20 1042 -2 908 -4 1030 -17 1030 -13 0 -15 -123 -18 -1033 l-2 -1033 29
-30 30 -29 708 2 c658 3 708 4 711 20 3 16 -32 17 -505 20 l-508 3 -61 32
c-107 56 -171 152 -199 298 -51 267 -12 558 112 824 51 112 81 161 177 291
166 227 310 340 556 435 52 21 109 48 127 61 17 13 36 24 41 24 6 0 24 -25 41
-55 17 -31 47 -73 67 -95 l36 -39 -40 -38 c-26 -25 -44 -53 -52 -83 l-12 -45
-22 41 c-35 68 -72 108 -91 100 -16 -6 -16 -8 -1 -29 54 -74 67 -98 81 -151
22 -89 33 -199 41 -421 8 -239 6 -235 104 -235 91 0 256 -17 360 -37 64 -12
137 -16 292 -15 121 1 218 -2 234 -8 35 -14 106 -70 102 -81 -2 -5 -118 -10
-258 -12 -219 -3 -268 -6 -345 -24 -379 -91 -650 -90 -707 2 -40 66 -101 327
-133 569 -7 59 -16 110 -19 113 -3 3 -12 3 -21 -1 -12 -4 -15 -14 -10 -38 3
-18 19 -114 35 -213 17 -99 36 -204 42 -233 10 -43 10 -57 -1 -75 -8 -12 -40
-72 -73 -134 -69 -134 -75 -178 -30 -222 33 -34 41 -35 397 -56 404 -25 434
-31 501 -109 57 -66 64 -93 64 -242 0 -78 4 -135 10 -139 18 -11 23 25 24 164
1 131 0 138 -26 182 -30 51 -90 109 -138 134 -32 16 -177 31 -593 60 -122 8
-203 18 -212 25 -28 23 -17 81 31 175 73 141 67 138 106 58 29 -60 39 -71 83
-93 48 -24 57 -25 220 -24 106 1 200 7 250 17 270 52 423 78 445 75 l25 -3 3
-382 c1 -244 6 -383 12 -383 6 0 13 -1 18 -2 4 -2 9 168 12 377 l5 380 245 2
c135 1 253 2 263 2 25 1 21 28 -5 35 -13 3 -52 6 -87 6 -63 0 -65 1 -118 51
-29 27 -74 60 -100 71 -44 19 -60 20 -200 15 -148 -6 -326 7 -459 32 -28 5
-107 13 -176 17 l-125 7 -7 166 c-4 91 -11 207 -17 257 -8 74 -7 112 6 190 17
108 30 136 74 159 27 13 33 13 73 -5 66 -29 120 -35 155 -17 54 28 114 106
165 213 53 115 98 278 80 296 -15 15 -32 1 -32 -26 0 -40 -49 -189 -91 -275
-24 -48 -61 -104 -88 -132 -59 -61 -94 -65 -183 -17 -69 37 -122 93 -162 171
-23 47 -28 68 -28 134 0 43 5 91 11 106 18 46 -8 66 -31 25z"/>
<path d="M1485 3000 c-70 -39 -91 -67 -47 -62 33 3 137 66 137 82 0 23 -18 19
-90 -20z"/>
<path d="M1219 2872 c-57 -34 -89 -72 -59 -72 17 0 150 79 150 89 0 23 -33 16
-91 -17z"/>
<path d="M971 2686 c-37 -38 -52 -59 -47 -71 5 -13 18 -6 71 42 35 32 64 64
65 71 0 27 -39 9 -89 -42z"/>
<path d="M787 2473 c-55 -77 -65 -103 -36 -103 10 0 99 124 99 139 0 26 -31 8
-63 -36z"/>
<path d="M652 2258 c-5 -7 -24 -41 -41 -76 -27 -53 -29 -63 -16 -68 9 -4 17
-5 19 -3 14 16 74 148 69 153 -10 9 -20 7 -31 -6z"/>
<path d="M2020 590 l0 -160 25 0 c24 0 25 2 25 64 0 36 4 77 10 91 8 22 15 26
42 23 l33 -3 3 -87 3 -88 29 0 30 0 0 93 c0 113 -12 137 -68 137 -21 0 -48 -7
-60 -16 l-22 -15 0 60 c0 58 -1 61 -25 61 l-25 0 0 -160z"/>
<path d="M2524 736 c-11 -28 4 -48 33 -44 22 2 28 8 28 28 0 20 -6 26 -28 28
-18 2 -29 -2 -33 -12z"/>
<path d="M410 733 c-36 -13 -60 -47 -60 -83 0 -46 20 -65 90 -88 61 -19 81
-42 61 -66 -19 -23 -73 -20 -105 5 -26 21 -28 21 -41 3 -20 -27 -19 -32 18
-54 36 -22 111 -27 150 -9 14 6 30 22 36 36 29 64 -4 115 -89 136 -48 11 -55
17 -58 40 -3 21 2 28 23 33 17 4 40 1 60 -9 30 -14 35 -14 46 -1 32 39 -65 81
-131 57z"/>
<path d="M1805 733 c-60 -16 -95 -72 -95 -153 0 -99 48 -150 142 -150 52 0 63
3 89 29 34 35 37 57 9 66 -15 5 -26 0 -41 -19 -26 -33 -87 -36 -114 -6 -22 25
-31 101 -15 139 22 53 88 64 128 20 17 -17 20 -17 40 -3 18 13 20 18 9 34 -24
39 -92 58 -152 43z"/>
<path d="M1450 685 c0 -18 -5 -25 -20 -25 -14 0 -20 -7 -20 -21 0 -12 8 -23
20 -26 18 -5 20 -14 20 -78 0 -85 14 -105 77 -105 46 0 53 4 46 31 -4 13 -14
19 -33 19 -33 0 -40 14 -40 81 l0 49 35 0 c31 0 35 3 35 25 0 22 -4 25 -35 25
-31 0 -35 3 -35 25 0 20 -5 25 -25 25 -20 0 -25 -5 -25 -25z"/>
<path d="M620 545 l0 -115 30 0 30 0 0 78 c0 90 7 105 46 100 l29 -3 3 -87 3
-88 29 0 29 0 3 88 3 87 29 3 c39 5 46 -10 46 -100 0 -76 0 -78 25 -78 25 0
25 0 25 98 0 83 -3 102 -18 115 -24 22 -80 22 -103 1 -17 -15 -19 -15 -34 0
-21 20 -74 21 -103 0 -20 -14 -22 -14 -22 0 0 10 -9 16 -25 16 l-25 0 0 -115z"/>
<path d="M1030 642 c-25 -20 -18 -58 9 -46 64 27 71 28 82 17 20 -20 2 -41
-39 -48 -72 -12 -102 -63 -66 -113 18 -27 84 -31 104 -7 12 14 15 14 30 0 25
-22 70 -20 70 4 0 10 -7 21 -15 25 -11 4 -15 22 -15 76 0 57 -4 74 -20 90 -26
26 -108 28 -140 2z m105 -129 c-8 -33 -22 -44 -50 -41 -31 4 -27 50 5 59 47
13 53 11 45 -18z"/>
<path d="M1260 545 l0 -115 30 0 30 0 0 80 c0 85 9 100 59 100 16 0 21 6 21
25 0 20 -5 25 -27 25 -14 0 -35 -7 -45 -17 -17 -15 -18 -15 -18 0 0 11 -8 17
-25 17 l-25 0 0 -115z"/>
<path d="M2300 642 c-25 -20 -18 -58 9 -46 64 27 71 28 82 17 20 -20 2 -41
-41 -48 -23 -4 -51 -16 -61 -26 -24 -24 -24 -71 -1 -92 23 -21 85 -22 102 -2
12 14 15 14 30 0 25 -22 70 -20 70 4 0 10 -6 21 -14 24 -10 4 -15 29 -18 82
-3 61 -7 80 -23 91 -27 20 -108 18 -135 -4z m100 -126 c0 -28 -22 -49 -47 -44
-29 5 -24 51 7 59 39 11 40 10 40 -15z"/>
<path d="M2530 545 l0 -115 25 0 25 0 0 115 0 115 -25 0 -25 0 0 -115z"/>
<path d="M2650 545 l0 -115 30 0 30 0 0 74 c0 82 13 106 56 106 19 0 24 5 24
25 0 20 -5 25 -24 25 -14 0 -31 -7 -39 -15 -13 -13 -16 -13 -21 0 -3 8 -17 15
-31 15 l-25 0 0 -115z"/>
</g>
</svg>
