<?xml version="1.0" standalone="no"?>
<!DOCTYPE svg PUBLIC "-//W3C//DTD SVG 20010904//EN"
 "http://www.w3.org/TR/2001/REC-SVG-20010904/DTD/svg10.dtd">
<svg version="1.0" xmlns="http://www.w3.org/2000/svg"
 width="328.000000pt" height="234.000000pt" viewBox="0 0 328.000000 234.000000"
 preserveAspectRatio="xMidYMid meet">

<g transform="translate(0.000000,234.000000) scale(0.100000,-0.100000)"
fill="#000000" stroke="none">
<path d="M1785 1985 c-83 -30 -131 -128 -123 -252 l4 -64 -71 -62 c-132 -115
-195 -212 -216 -333 -15 -88 -7 -224 22 -339 32 -130 30 -200 -10 -314 -29
-83 -32 -105 -29 -174 3 -64 7 -81 23 -93 15 -11 63 -14 220 -14 253 0 241 -8
232 147 -4 60 -14 137 -23 173 -14 60 -14 83 2 287 20 255 18 277 -46 413 -49
104 -50 130 -9 164 30 26 39 27 87 8 25 -9 89 74 123 160 44 110 46 179 6 232
-48 63 -122 87 -192 61z m123 -29 c63 -32 89 -97 71 -172 -18 -77 -73 -188
-104 -212 l-28 -22 -51 28 c-67 37 -116 108 -116 166 0 45 20 129 39 164 29
55 128 80 189 48z m-186 -351 l45 -44 -28 -27 c-45 -43 -45 -65 5 -173 66
-145 70 -165 57 -333 -6 -79 -14 -165 -18 -193 l-6 -50 -15 35 c-11 25 -17 95
-22 245 -8 231 -15 263 -72 323 -31 31 -58 42 -58 22 0 -5 9 -14 20 -20 11 -6
31 -30 45 -54 21 -37 28 -65 35 -158 5 -62 10 -159 10 -216 0 -93 3 -111 34
-190 41 -108 54 -164 62 -286 8 -111 1 -126 -56 -126 l-37 0 -42 112 c-45 124
-61 193 -61 272 0 30 -15 106 -36 177 -19 68 -44 170 -54 227 -18 104 -24 121
-37 108 -11 -10 32 -229 68 -341 21 -68 34 -134 39 -205 8 -106 17 -140 64
-264 14 -37 26 -72 26 -77 0 -5 -63 -9 -139 -9 -133 0 -141 1 -155 22 -27 38
-21 134 15 230 40 104 43 201 11 328 -28 108 -37 237 -23 320 18 111 61 182
174 293 55 53 101 97 102 97 1 0 22 -20 47 -45z"/>
<path d="M1430 1830 c0 -5 9 -14 20 -20 41 -22 19 -30 -80 -30 -60 0 -100 -4
-100 -10 0 -6 42 -10 106 -10 l105 0 -28 -24 c-44 -38 -20 -41 31 -4 25 18 45
35 46 38 0 8 -82 70 -92 70 -4 0 -8 -4 -8 -10z"/>
<path d="M1576 1724 c-16 -19 -26 -38 -22 -41 8 -9 66 47 66 64 0 21 -13 14
-44 -23z"/>
<path d="M1452 1607 c-18 -18 -29 -36 -25 -40 7 -8 73 51 73 65 0 16 -17 7
-48 -25z"/>
<path d="M1350 1485 c-31 -50 -19 -67 13 -20 29 42 33 55 18 55 -5 0 -19 -16
-31 -35z"/>
<path d="M1286 1339 c-9 -46 -8 -75 3 -63 13 14 25 94 13 94 -5 0 -12 -14 -16
-31z"/>
<path d="M1277 1203 c-11 -10 -8 -91 3 -98 6 -4 10 15 10 49 0 57 -1 61 -13
49z"/>
</g>
</svg>
